# xmcd CD database file
#
# Track frame offsets:
#	150
#	15490
#	29561
#	48398
#	61791
#	75285
#	90674
#	104795
#	124158
#	138089
#	157790
#	184533
#	198713
#	218291
#
# Disc length: 3067 seconds
#
# Revision: 3
# Processed by: cddbd v1.5.2PL0 Copyright (c) Steve Scherf et al.
# Submitted via: CDex 1.70beta2
#
DISCID=ab0bf90e
DTITLE=Marina Baranova, Helmut Eisel - impromptu
DYEAR=2007
DGENRE=Jazz
TTITLE0=Shameless Magpie
TTITLE1=The New Freilach
TTITLE2=Paganini Suite I
TTITLE3=Paganini Suite II
TTITLE4=Paganini Suite III
TTITLE5=Mi Hoish
TTITLE6=Gopak
TTITLE7=In Odess
TTITLE8=Tell Me Why
TTITLE9=Goldenberg And Shmuyle In Safed
TTITLE10=Bulja, Bulja
TTITLE11=Tarras Freilach
TTITLE12=Baba Yaga's Magical Dance
TTITLE13=Sleep, Sleep, My Peasant Son
EXTD=YEAR: 2007
EXTT0=
EXTT1=
EXTT2=
EXTT3=
EXTT4=
EXTT5=
EXTT6=
EXTT7=
EXTT8=
EXTT9=
EXTT10=
EXTT11=
EXTT12=
EXTT13=
PLAYORDER=
